# xmcd
#
# Track frame offsets: 
#        150
#        15006
#        27627
#        39882
#        52944
#        65982
#        80993
#        94602
#        104015
#        113314
#        121336
#        129902
#        136532
#        146501
#        155599
#        162688
#        169652
#        176228
#        185908
#        196396
#        205330
#        215457
#        226681
#        241124
#        250359
#        263549
#        270973
#        287972
#        302525
#        312161
#
# Disc length: 4294 seconds
#
# Revision: 0
# Processed by: cddbd v1.5.1PL2 Copyright (c) Steve Scherf et al.
# Submitted via: ExactAudioCopy v0.95b4
#
DISCID=a110c41e
DTITLE=Володимир Шинкарук - Дім для душі
DYEAR=2002
DGENRE=
TTITLE0=Дім для душі
TTITLE1=Жарт про кохання
TTITLE2=Плаче дівчина
TTITLE3=П`ятдесята зупинка
TTITLE4=Ой чиє ж то пол
TTITLE5=Чорні круки
TTITLE6=Віч-на-віч з собою
TTITLE7=Рано чи пізн
TTITLE8=Порівняння
TTITLE9=Заздріст
TTITLE10=Про це...
TTITLE11=Іронічний романс
TTITLE12=Вікна
TTITLE13=Розлюби мене
TTITLE14=Навпаки
TTITLE15=Метаморфози
TTITLE16=Шоу-бізнес
TTITLE17=Злітає в небо день
TTITLE18=Сліпий
TTITLE19=Попі
TTITLE20=Я - сьогодні дощ
TTITLE21=Монолог футболіста
TTITLE22=Старий вітряк
TTITLE23=Південно-Західна залізниця
TTITLE24=Ще раз про любов
TTITLE25=Гроші
TTITLE26=Заповіт вчителя
TTITLE27=Життя - наче сон
TTITLE28=Стою на дорозі
TTITLE29=Остання крапля дощу
EXTD=
EXTT0=
EXTT1=
EXTT2=
EXTT3=
EXTT4=
EXTT5=
EXTT6=
EXTT7=
EXTT8=
EXTT9=
EXTT10=
EXTT11=
EXTT12=
EXTT13=
EXTT14=
EXTT15=
EXTT16=
EXTT17=
EXTT18=
EXTT19=
EXTT20=
EXTT21=
EXTT22=
EXTT23=
EXTT24=
EXTT25=
EXTT26=
EXTT27=
EXTT28=
EXTT29=
PLAYORDER=
